<?xml version="1.0" encoding="iso-8859-1"?>
<!-- Uploaded to: SVG Repo, www.svgrepo.com, Generator: SVG Repo Mixer Tools -->
<svg version="1.1" id="Layer_1" xmlns="http://www.w3.org/2000/svg" xmlns:xlink="http://www.w3.org/1999/xlink" 
	 viewBox="0 0 512 512" xml:space="preserve">
<path style="fill:#013A3A;" d="M389.447,8.17h-32.673l32.673,125.277l32.681-43.574V40.851
	C422.128,22.877,407.421,8.17,389.447,8.17z"/>
<path style="fill:#027372;" d="M356.774,8.17h-234.22c-17.974,0-32.681,14.706-32.681,32.681v49.021l299.574,43.574V40.851
	C389.447,22.88,374.745,8.175,356.774,8.17z"/>
<path style="fill:#013A3A;" d="M389.447,503.83h-32.673l32.673-125.277l32.681,43.574v49.021
	C422.128,489.123,407.421,503.83,389.447,503.83z"/>
<path style="fill:#027372;" d="M356.774,503.83h-234.22c-17.974,0-32.681-14.706-32.681-32.681v-49.021l299.574-43.574v92.596
	C389.447,489.12,374.745,503.825,356.774,503.83z"/>
<polygon style="fill:#FFE777;" points="389.447,422.128 422.128,422.128 422.128,89.872 389.447,89.872 345.872,261.447 "/>
<rect x="89.872" y="89.872" style="fill:#FFFFFF;" width="299.574" height="332.255"/>
<path style="fill:#272727;" d="M187.915,264.17h-32.681c-4.512,0-8.17-3.658-8.17-8.17s3.658-8.17,8.17-8.17h32.681
	c4.512,0,8.17,3.658,8.17,8.17S192.427,264.17,187.915,264.17z"/>
<path style="fill:#4D4D4D;" d="M168.741,314.554c-2.824,0-5.57-1.465-7.083-4.086c-2.256-3.908-0.917-8.904,2.99-11.161
	l28.303-16.34c3.908-2.257,8.904-0.918,11.161,2.99c2.256,3.908,0.917,8.904-2.99,11.161l-28.303,16.34
	C171.532,314.201,170.128,314.554,168.741,314.554z"/>
<path style="fill:#737373;" d="M205.609,351.438c-1.386,0-2.791-0.353-4.077-1.096c-3.908-2.256-5.246-7.253-2.99-11.161
	l16.34-28.302c2.255-3.909,7.252-5.249,11.161-2.99c3.908,2.256,5.246,7.253,2.99,11.16l-16.34,28.302
	C211.179,349.973,208.433,351.438,205.609,351.438z"/>
<path style="fill:#969696;" d="M256,364.936c-4.512,0-8.17-3.658-8.17-8.17v-32.681c0-4.512,3.658-8.17,8.17-8.17
	c4.513,0,8.17,3.658,8.17,8.17v32.681C264.17,361.278,260.512,364.936,256,364.936z"/>
<path style="fill:#B9B9B9;" d="M306.391,351.438c-2.824,0-5.569-1.465-7.083-4.086l-16.34-28.302
	c-2.256-3.908-0.917-8.904,2.99-11.16c3.905-2.257,8.903-0.918,11.161,2.99l16.34,28.302c2.256,3.908,0.917,8.904-2.99,11.161
	C309.182,351.085,307.776,351.438,306.391,351.438z"/>
<path style="fill:#DCDCDC;" d="M343.258,314.554c-1.386,0-2.791-0.353-4.077-1.096l-28.302-16.34
	c-3.908-2.256-5.246-7.253-2.99-11.161c2.254-3.909,7.251-5.249,11.16-2.99l28.302,16.34c3.908,2.256,5.246,7.253,2.99,11.161
	C348.829,313.089,346.081,314.554,343.258,314.554z"/>
<path style="fill:#EEEEEE;" d="M356.766,264.17h-32.681c-4.513,0-8.17-3.658-8.17-8.17s3.657-8.17,8.17-8.17h32.681
	c4.513,0,8.17,3.658,8.17,8.17S361.278,264.17,356.766,264.17z"/>
<circle cx="273.07" cy="49.021" r="8.17"/>
<path d="M390.173,0H123.28c-22.927,0-41.578,18.325-41.578,40.851v430.298c0,22.526,18.325,40.851,40.851,40.851h266.894
	c22.526,0,40.851-18.325,40.851-40.851V40.851C430.298,18.708,411.924,0,390.173,0z M98.043,98.043h315.915v315.915H98.043V98.043z
	 M123.28,16.34h266.894c12.893,0,23.784,11.225,23.784,24.511v40.851H98.043V40.851C98.043,27.335,109.363,16.34,123.28,16.34z
	 M389.447,495.66H122.553c-13.516,0-24.511-10.995-24.511-24.511v-40.851h315.915v40.851
	C413.957,484.664,402.961,495.66,389.447,495.66z"/>
<path d="M256,147.064c-4.512,0-8.17,3.658-8.17,8.17v32.681c0,4.512,3.658,8.17,8.17,8.17c4.513,0,8.17-3.658,8.17-8.17v-32.681
	C264.17,150.722,260.512,147.064,256,147.064z"/>
<path d="M212.692,164.649c-2.257-3.909-7.254-5.246-11.161-2.99c-3.908,2.256-5.246,7.253-2.99,11.161l16.34,28.303
	c1.513,2.621,4.259,4.086,7.083,4.086c1.386,0,2.791-0.353,4.077-1.096c3.908-2.256,5.246-7.253,2.99-11.161L212.692,164.649z"/>
<path d="M164.648,212.692l28.303,16.34c1.287,0.743,2.692,1.096,4.077,1.096c2.824,0,5.57-1.466,7.083-4.086
	c2.256-3.908,0.917-8.904-2.99-11.161l-28.303-16.34c-3.909-2.258-8.904-0.917-11.161,2.99
	C159.402,205.439,160.741,210.436,164.648,212.692z"/>
</svg>